<?xml version="1.0" encoding="UTF-8"?>
<svg width="792" height="750" viewBox="0 0 792 750" xmlns="http://www.w3.org/2000/svg">
  <path fill="#FF6128" stroke="none" d="M0 0.25234C0 0.519006 7.33333 5.98567 16.4 12.3857C80.2667 58.119 150.267 114.519 203.333 162.919C228.267 185.586 286.133 243.986 303.733 264.119C338.533 303.986 361.6 335.052 381.6 368.519C389.2 381.186 395.733 391.586 396.267 391.586C396.933 391.586 401.733 382.386 407.067 371.186C435.333 312.386 470.133 264.652 526.267 208.119C584.533 149.319 643.067 102.519 745.333 32.919C785.2 5.85234 792.267 0.785673 791.6 0.119006C790.4 -1.08099 546.8 33.5857 475.333 45.0523C461.467 47.319 449.333 49.8523 448.4 50.6523C447.067 52.119 428.667 110.919 408 180.252C402.667 197.852 398.267 212.519 398 212.786C397.467 213.319 391.867 195.586 375.333 140.919C362.4 98.119 348.4 54.3857 346.933 51.9857C345.2 49.319 362.933 51.9857 54 7.71901C28.4 3.98567 5.73333 0.65234 3.73333 0.25234C1.6 -0.0143271 0 -0.14766 0 0.25234Z"/>
  <path fill="#FF6128" stroke="none" d="M395.734 408.386C395.334 409.052 393.067 418.519 390.667 429.586C376 499.319 350.667 555.719 308.934 611.586C292.4 633.719 260 666.519 234.667 686.786C216.133 701.586 179.467 726.652 157.733 739.586C150.933 743.586 145.333 747.186 145.333 747.719C145.333 748.786 262.134 749.719 314.8 749.186L351.6 748.652L353.2 743.186C354.134 740.119 362.267 714.119 371.334 685.586C380.4 656.919 389.467 628.652 391.334 622.519C393.2 616.519 395.2 611.586 395.867 611.586C396.934 611.586 400.4 622.119 421.867 692.919C429.6 718.252 436.667 741.186 437.467 743.852L439.067 748.919H544.267C602 748.919 649.334 748.652 649.334 748.386C649.334 748.119 643.734 744.786 637.067 740.919C593.867 716.386 546.8 680.252 514.667 646.786C454.134 583.852 417.734 514.119 400.667 428.386C398.4 416.652 396.134 407.586 395.734 408.386Z"/>
  <style>
    path {
      fill: #FF6128;
      stroke: none;
    }
    @media (prefers-color-scheme: dark) {
      path {
        fill: #FF6128;
        stroke: rgba(255, 255, 255, 0.15);
        stroke-width: 8;
      }
    }
  </style>
</svg> 